<svg xmlns="http://www.w3.org/2000/svg" xmlns:xlink="http://www.w3.org/1999/xlink" viewBox="0,0,256,256" width="100px" height="100px" fill-rule="nonzero"><g transform=""><g fill="#a7a7a7" fill-rule="nonzero" stroke="none" stroke-width="1" stroke-linecap="butt" stroke-linejoin="miter" stroke-miterlimit="10" stroke-dasharray="" stroke-dashoffset="0" font-family="none" font-weight="none" font-size="none" text-anchor="none" style="mix-blend-mode: normal"><path d="M0,256v-256h256v256z" id="bgRectangle"></path></g><g fill="#000000" fill-rule="nonzero" stroke="none" stroke-width="1" stroke-linecap="butt" stroke-linejoin="miter" stroke-miterlimit="10" stroke-dasharray="" stroke-dashoffset="0" font-family="none" font-weight="none" font-size="none" text-anchor="none" style="mix-blend-mode: normal"><g transform="scale(2.56,2.56)"><path d="M50,14c-19.87042,0 -36,16.12959 -36,36c0,19.87041 16.12958,36 36,36c19.87042,0 36,-16.12959 36,-36c0,-19.87041 -16.12958,-36 -36,-36zM50,16c18.78954,0 34,15.21047 34,34c0,18.78953 -15.21046,34 -34,34c-18.78954,0 -34,-15.21047 -34,-34c0,-18.78953 15.21046,-34 34,-34zM50,19c-17.11521,0 -31,13.88479 -31,31c0,17.11521 13.88479,31 31,31c17.11521,0 31,-13.88479 31,-31c0,-9.09562 -3.92092,-17.28318 -10.16406,-22.95312c-0.13124,-0.12623 -0.32074,-0.17114 -0.49467,-0.11724c-0.17394,0.05391 -0.30482,0.19811 -0.34167,0.37644c-0.03685,0.17833 0.02615,0.3626 0.16447,0.48104c6.04286,5.48806 9.83594,13.40451 9.83594,22.21289c0,16.57479 -13.42521,30 -30,30c-16.57479,0 -30,-13.42521 -30,-30c0,-16.57479 13.42521,-30 30,-30c3.63074,0 7.10806,0.64594 10.32813,1.82617c0.16782,0.06143 0.35567,0.02865 0.49277,-0.08598c0.1371,-0.11463 0.20263,-0.29371 0.17189,-0.46976c-0.03074,-0.17605 -0.15307,-0.32232 -0.32091,-0.38371c-3.32794,-1.21977 -6.92262,-1.88672 -10.67187,-1.88672zM63.48047,22.14063c-0.23125,0.00568 -0.42843,0.16924 -0.47674,0.39547c-0.04831,0.22622 0.06485,0.45605 0.27361,0.55571c0.66975,0.33143 1.32715,0.68755 1.96875,1.06641c0.15409,0.09526 0.34764,0.09974 0.50597,0.0117c0.15832,-0.08804 0.25665,-0.25482 0.25704,-0.43597c0.00038,-0.18115 -0.09724,-0.34835 -0.25519,-0.43705c-0.6624,-0.39114 -1.339,-0.75899 -2.03125,-1.10156c-0.07485,-0.0383 -0.15814,-0.05711 -0.24219,-0.05469zM67.50781,24.51172c-0.01695,-0.00021 -0.0339,0.00044 -0.05078,0.00195c-0.21205,0.01579 -0.39093,0.16396 -0.44591,0.36937c-0.05498,0.20541 0.02596,0.42312 0.20177,0.54273c0.33269,0.23328 0.66032,0.47422 0.98242,0.7207c0.142,0.10887 0.33129,0.13371 0.49657,0.06516c0.16528,-0.06855 0.28143,-0.22007 0.3047,-0.39748c0.02327,-0.17741 -0.04988,-0.35376 -0.1919,-0.46261c-0.3339,-0.25551 -0.67427,-0.50342 -1.01758,-0.74414c-0.08135,-0.05928 -0.17869,-0.09264 -0.2793,-0.0957zM64.375,34c-0.89892,0 -1.77357,0.4132 -1.77539,0.41406l-32.84961,13.29883c-0.04744,0.01567 -0.40992,0.13884 -0.80859,0.4043c-0.42533,0.28321 -0.94141,0.77395 -0.94141,1.50977c0,0.78628 0.48072,1.33813 0.9043,1.64258c0.42358,0.30445 0.8457,0.42773 0.8457,0.42773c0.0039,0.0007 0.00781,0.00135 0.01172,0.00195l7.60156,2.0625c0.07872,0.22026 0.93707,2.62051 1.88281,5.26367c0.49408,1.38088 0.9911,2.76637 1.36914,3.82031c0.18902,0.52697 0.34817,0.97073 0.46289,1.28906c0.05736,0.15917 0.10343,0.28731 0.13672,0.37891c0.03329,0.09159 0.03958,0.11502 0.06445,0.17578c0.20134,0.49253 0.38342,0.7777 0.55859,0.96289c0.08759,0.09259 0.17632,0.15924 0.26172,0.20508c0.02094,0.01124 0.04051,0.01673 0.06055,0.02539c0.00323,0.00199 0.00649,0.00394 0.00977,0.00586c0.00331,0.00157 0.00645,0.00238 0.00977,0.00391c0.01404,0.00553 0.02908,0.01331 0.04297,0.01758c0.01686,0.00519 0.0266,0.00575 0.04688,0.00977c0.16102,0.05772 0.32364,0.08378 0.47266,0.07422c0.48448,-0.01976 0.82422,-0.28711 0.82422,-0.28711c0.01079,-0.00868 0.02122,-0.0178 0.03125,-0.02734l4.95313,-4.57617l7.48828,6.33594c0,0 0.18403,0.16514 0.4668,0.29883c0.28276,0.13373 0.69593,0.26172 1.2207,0.26172c0.97318,0 1.63078,-0.43541 1.97852,-0.87695c0.34773,-0.44155 0.42969,-0.9082 0.42969,-0.9082v0.00781c0,0 1.44605,-7.49581 2.89844,-15.02539c0.72619,-3.76479 1.45381,-7.53769 2.00195,-10.38672c0.27407,-1.42451 0.50407,-2.61886 0.66602,-3.46484c0.08097,-0.42299 0.1449,-0.75915 0.18945,-0.99414c0.02228,-0.1175 0.04051,-0.20976 0.05273,-0.27539c0.01223,-0.06564 0.01363,-0.06126 0.02344,-0.13281c0.01923,-0.13907 0.0332,-0.2893 0.0332,-0.44336c0,-0.44583 -0.19744,-0.85426 -0.50586,-1.11523c-0.30842,-0.26097 -0.70664,-0.38477 -1.11914,-0.38477zM64.375,35c0.2125,0 0.37678,0.0637 0.47461,0.14648c0.09783,0.08278 0.15039,0.17435 0.15039,0.35352c0,0.08794 -0.0087,0.19972 -0.02344,0.30664c0.0075,-0.05468 -0.0057,0.02423 -0.01758,0.08789c-0.01186,0.06366 -0.02861,0.15455 -0.05078,0.27148c-0.04434,0.23387 -0.10854,0.56949 -0.18945,0.99219c-0.16183,0.84539 -0.39002,2.03853 -0.66406,3.46289c-0.54808,2.84872 -1.27577,6.62201 -2.00195,10.38672c-1.45236,7.52942 -2.90039,15.02539 -2.90039,15.02539c-0.00067,0.0026 -0.00132,0.0052 -0.00195,0.00781c0,0 -0.03795,0.21843 -0.23047,0.46289c-0.19247,0.24447 -0.49354,0.49609 -1.19336,0.49609c-0.36522,0 -0.62523,-0.08476 -0.79297,-0.16406c-0.16774,-0.07931 -0.21289,-0.12695 -0.21289,-0.12695c-0.00571,-0.006 -0.01157,-0.01187 -0.01758,-0.01758l-12.08398,-10.22656l14.92188,-14.19141l-0.03906,0.0332c0.32843,-0.25289 0.49805,-0.63859 0.49805,-1.02148c0,-0.00065 0,-0.0013 0,-0.00195c-0.0016,-0.26731 -0.08619,-0.54103 -0.25977,-0.77148c-0.24284,-0.32646 -0.62069,-0.5095 -1.00195,-0.51172h-0.00195c-0.27552,-0.0013 -0.55233,0.09149 -0.78125,0.26758l0.04102,-0.0293l-20.25,12.5332l0.25195,0.14258c-0.03693,-0.02051 -0.0763,-0.03626 -0.11719,-0.04687l-7.85352,-2.13086l-0.00391,-0.00195c-0.0091,-0.0028 -0.2674,-0.08294 -0.53516,-0.27539c-0.27238,-0.19575 -0.48828,-0.43931 -0.48828,-0.83203c0,-0.24918 0.20243,-0.4822 0.49609,-0.67773c0.29366,-0.19554 0.5957,-0.29687 0.5957,-0.29687c0.0112,-0.00352 0.02228,-0.00742 0.0332,-0.01172l32.86328,-13.30469c0.00459,-0.00189 0.00914,-0.00384 0.01367,-0.00586c0,0 0.81291,-0.33008 1.37305,-0.33008zM58.73242,41c0.07614,0.00033 0.14824,0.03034 0.20703,0.10938c0.00065,0.00065 0.0013,0.0013 0.00195,0.00195c0.03816,0.05029 0.05783,0.11129 0.05859,0.17578c-0.00052,0.08843 -0.0383,0.17379 -0.10937,0.22852c-0.01358,0.01039 -0.02662,0.02147 -0.03906,0.0332l-15.32617,14.57617c-0.07914,0.07561 -0.13129,0.1751 -0.14844,0.2832h-0.00391l-1.26562,7.63477c-0.0273,-0.07544 -0.0523,-0.14192 -0.08984,-0.24609c-0.11439,-0.31743 -0.27396,-0.76233 -0.46289,-1.28906c-0.37787,-1.05346 -0.87315,-2.43956 -1.36719,-3.82031c-0.92003,-2.57131 -1.71079,-4.78014 -1.83203,-5.11914l20.16797,-12.48047c0.01416,-0.00907 0.02784,-0.01885 0.04102,-0.0293c0.05657,-0.04351 0.1141,-0.05892 0.16797,-0.05859zM44.2168,57.43555l3.56445,3.01758l-4.79883,4.43359z"></path></g></g></g></svg>